<svg width="23" height="27" viewBox="0 0 23 27" fill="none" xmlns="http://www.w3.org/2000/svg">
<path d="M6.11663 25.5141C5.58234 25.1731 5.1088 24.7517 4.71422 24.2661C4.28019 23.7649 3.87805 23.2391 3.50998 22.6915C2.64625 21.4775 1.96888 20.1506 1.49868 18.7517C0.933816 17.1267 0.660278 15.5691 0.660278 14.0457C0.660278 12.3443 1.04391 10.8591 1.79423 9.61106C2.35043 8.63561 3.1682 7.82045 4.16291 7.24994C5.12691 6.67548 6.23455 6.3611 7.36915 6.33994C7.76633 6.33994 8.19399 6.39519 8.64791 6.50081C8.97396 6.58938 9.37114 6.72913 9.85639 6.903C10.4738 7.13131 10.8133 7.27106 10.9285 7.30519C11.2901 7.43194 11.5942 7.48719 11.833 7.48719C12.0142 7.48719 12.27 7.43194 12.5604 7.34744C12.7239 7.29219 13.0321 7.19469 13.4734 7.0135C13.9103 6.86075 14.2542 6.72994 14.5277 6.63244C14.9469 6.51381 15.3525 6.40413 15.7142 6.34888C16.1429 6.28403 16.5779 6.26686 17.0107 6.29769C17.7607 6.34472 18.4994 6.4972 19.2032 6.75025C20.3541 7.19469 21.2848 7.88856 21.9776 8.87494C21.6848 9.04808 21.41 9.24779 21.157 9.47131C20.6062 9.93978 20.137 10.4897 19.7673 11.1004C19.284 11.9349 19.0334 12.8749 19.0398 13.8296C19.0576 15.002 19.3709 16.0347 19.9883 16.9276C20.4422 17.5894 21.032 18.1554 21.7218 18.5908C22.075 18.8191 22.379 18.9759 22.6703 19.0816C22.534 19.4878 22.3883 19.8811 22.2164 20.2711C21.8265 21.1456 21.3539 21.9841 20.8047 22.776C20.3152 23.4577 19.9315 23.9655 19.6402 24.3035C19.1863 24.8194 18.7493 25.2135 18.3081 25.4881C17.8229 25.7969 17.2495 25.9618 16.6669 25.9618C16.2723 25.9763 15.8778 25.9305 15.4982 25.8261C15.1722 25.7205 14.8495 25.6059 14.5319 25.4751C14.2018 25.3296 13.8613 25.2066 13.5132 25.1071C12.6525 24.895 11.7501 24.8936 10.8887 25.103C10.5356 25.2005 10.196 25.3142 9.86062 25.454C9.38892 25.6441 9.07558 25.7717 8.89435 25.8261C8.53274 25.9277 8.15758 25.9911 7.77818 26.0122C7.1913 26.0122 6.64423 25.8513 6.10223 25.5255L6.11663 25.5141ZM13.857 5.51444C13.0897 5.8825 12.3572 6.03931 11.6297 5.98812C11.5154 5.28531 11.6297 4.56625 11.9337 3.77894C12.1926 3.11193 12.575 2.49534 13.0626 1.95894C13.5775 1.39427 14.2023 0.931431 14.902 0.596375C15.6473 0.228312 16.3578 0.02925 17.037 0C17.125 0.736125 17.037 1.46006 16.755 2.2425C16.494 2.93417 16.1122 3.57819 15.6261 4.147C15.1299 4.71244 14.5209 5.17708 13.835 5.51362L13.857 5.51444Z" fill="black"/>
</svg>
