<svg width="90" height="90" viewBox="0 0 90 90" fill="none" xmlns="http://www.w3.org/2000/svg">
<path d="M86.8333 44.9989C88.2233 43.3803 89.1973 41.447 89.671 39.3667C90.1446 37.2864 90.1035 35.1219 89.5512 33.0611C88.999 31.0003 87.9523 29.1054 86.5019 27.5406C85.0515 25.9759 83.2413 24.7887 81.2282 24.082C81.6226 21.9852 81.4995 19.8238 80.8694 17.7853C80.2394 15.7468 79.1215 13.8929 77.6127 12.3843C76.1039 10.8757 74.2498 9.75802 72.2112 9.12824C70.1727 8.49846 68.0113 8.37559 65.9145 8.7703C65.2083 6.75675 64.0214 4.946 62.4566 3.49526C60.8919 2.04452 58.9967 0.997636 56.9356 0.445508C54.8745 -0.10662 52.7097 -0.147307 50.6293 0.326981C48.5489 0.801268 46.6157 1.77619 44.9976 3.16711C43.379 1.77715 41.4457 0.803104 39.3654 0.329472C37.2851 -0.144161 35.1206 -0.103073 33.0598 0.449169C30.999 1.00141 29.104 2.04813 27.5393 3.49852C25.9746 4.94891 24.7874 6.75916 24.0807 8.77225C21.984 8.37818 19.8228 8.5016 17.7846 9.1318C15.7464 9.762 13.8928 10.88 12.3844 12.3887C10.8761 13.8974 9.75857 15.7514 9.12888 17.7898C8.4992 19.8281 8.37634 21.9893 8.77094 24.0859C6.75786 24.7926 4.94759 25.9798 3.4972 27.5445C2.04681 29.1093 1.00009 31.0042 0.447848 33.065C-0.104394 35.1258 -0.145487 37.2903 0.328145 39.3706C0.801777 41.4509 1.77584 43.3842 3.1658 45.0028C1.77542 46.6214 0.801055 48.5548 0.327288 50.6353C-0.146479 52.7159 -0.10535 54.8806 0.447134 56.9416C0.999617 59.0026 2.04674 60.8976 3.49763 62.4622C4.94852 64.0267 6.75934 65.2136 8.77289 65.9197C8.37795 68.0163 8.50067 70.1777 9.13043 72.2162C9.76019 74.2546 10.878 76.1086 12.3867 77.6172C13.8954 79.1257 15.7495 80.2432 17.7881 80.8727C19.8266 81.5022 21.988 81.6247 24.0846 81.2295C24.7913 83.2425 25.9785 85.0528 27.5432 86.5032C29.1079 87.9536 31.0029 89.0003 33.0637 89.5525C35.1245 90.1048 37.289 90.1459 39.3693 89.6722C41.4495 89.1986 43.3829 88.2246 45.0015 86.8346C46.6201 88.225 48.5535 89.1993 50.6341 89.6731C52.7146 90.1469 54.8792 90.1057 56.9402 89.5533C59.0012 89.0008 60.8963 87.9536 62.4609 86.5028C64.0254 85.0519 65.2123 83.2411 65.9184 81.2275C68.0151 81.6223 70.1765 81.4995 72.215 80.8698C74.2535 80.24 76.1075 79.1223 77.6162 77.6136C79.1249 76.105 80.2426 74.2509 80.8724 72.2124C81.5022 70.1739 81.6249 68.0125 81.2301 65.9158C83.2433 65.2092 85.0538 64.0221 86.5042 62.4573C87.9547 60.8925 89.0014 58.9975 89.5535 56.9365C90.1055 54.8755 90.1463 52.711 89.6723 50.6307C89.1983 48.5504 88.2238 46.6172 86.8333 44.9989V44.9989Z" fill="#FBBB00"/>
<path d="M37.8911 61.5031L26.9534 50.5723C26.5383 50.1565 26.3052 49.593 26.3052 49.0055C26.3052 48.418 26.5383 47.8545 26.9534 47.4387L28.2823 46.1082C28.698 45.6931 29.2615 45.4599 29.849 45.4599C30.4365 45.4599 31.0001 45.6931 31.4158 46.1082L39.3666 54.0538L58.0912 34.1556C58.4941 33.7281 59.0502 33.4779 59.6374 33.46C60.2246 33.4421 60.7949 33.6579 61.2231 34.0601L62.5877 35.348C63.0157 35.7509 63.2662 36.3074 63.2841 36.895C63.3021 37.4826 63.0859 38.0532 62.6832 38.4815L41.0775 61.4536C40.8741 61.6704 40.6291 61.8441 40.3572 61.9644C40.0853 62.0846 39.792 62.1489 39.4948 62.1536C39.1975 62.1582 38.9023 62.103 38.6268 61.9912C38.3513 61.8795 38.1011 61.7135 37.8911 61.5031V61.5031Z" fill="white"/>
</svg>
