<svg width="25" height="24" viewBox="0 0 25 24" fill="none" xmlns="http://www.w3.org/2000/svg">
<path d="M5.45988 14.2839L4.60233 17.3554L1.46801 17.419C0.531312 15.7521 0 13.845 0 11.8184C0 9.85863 0.496764 8.01056 1.37731 6.3833H1.37799L4.16841 6.87412L5.39078 9.53525C5.13494 10.2508 4.9955 11.019 4.9955 11.8184C4.99559 12.6859 5.15938 13.5171 5.45988 14.2839Z" fill="#FBBB00"/>
<path d="M24.4209 9.61035C24.5623 10.3253 24.6361 11.0636 24.6361 11.8181C24.6361 12.6642 24.5434 13.4896 24.3667 14.2857C23.7671 16.9948 22.2003 19.3604 20.0297 21.0344L20.0291 21.0337L16.5144 20.8617L16.0169 17.8824C17.4572 17.0721 18.5828 15.8039 19.1757 14.2857H12.5889V9.61035H19.2717H24.4209Z" fill="#518EF8"/>
<path d="M20.029 21.0337L20.0297 21.0343C17.9187 22.6622 15.2371 23.6363 12.318 23.6363C7.62704 23.6363 3.54856 21.1207 1.46802 17.4187L5.45988 14.2837C6.50013 16.9473 9.17829 18.8434 12.318 18.8434C13.6676 18.8434 14.9319 18.4934 16.0168 17.8824L20.029 21.0337Z" fill="#28B446"/>
<path d="M20.1806 2.72077L16.1901 5.85517C15.0673 5.18181 13.74 4.79283 12.3181 4.79283C9.10723 4.79283 6.37898 6.77593 5.39084 9.53506L1.37799 6.38311H1.37732C3.42741 2.59091 7.55732 0 12.3181 0C15.3069 0 18.0473 1.02144 20.1806 2.72077Z" fill="#F14336"/>
</svg>
