<svg width="126" height="110" viewBox="0 0 126 110" fill="none" xmlns="http://www.w3.org/2000/svg">
<path d="M84.7691 80.818C83.4852 84.3515 82.5089 87.8054 81.0181 91.0153C77.283 99.0585 71.3991 105.186 63.5999 109.431C63.2445 109.622 62.5653 109.542 62.1886 109.33C51.3494 103.181 44.553 94.0182 41.7941 81.8685C41.7357 81.6138 41.6774 81.3539 41.6031 81.0992C41.5819 81.0196 41.5023 80.9612 41.4386 80.871C38.9768 81.6457 36.5469 82.5794 34.0374 83.163C24.9542 85.2853 16.0727 84.6168 7.52017 80.7755C1.80078 78.2077 -1.38786 70.9815 0.585808 64.9544C3.48264 56.0888 8.69801 48.9316 16.3433 43.4881C23.1716 38.6229 30.7479 36.1664 39.0511 35.7685C39.9531 35.7261 40.2342 35.4555 40.2979 34.5429C40.8762 26.3193 44.7652 20.1118 51.8587 15.931C52.7288 15.4217 53.0366 14.9123 52.4795 14.0582C51.1849 12.0845 50.0124 9.9994 48.5109 8.19551C47.2323 6.65159 45.3011 6.13695 43.2743 6.04676C41.688 5.97779 40.4942 4.78404 40.3616 3.30909C40.2342 1.91373 41.2317 0.343284 42.5846 0.109839C43.5237 -0.0493278 44.5317 -0.0281055 45.4761 0.125756C50.856 1.00648 54.3099 4.41795 56.846 8.96482C57.403 9.96226 57.8964 11.0128 58.2784 12.0898C58.6127 13.0342 59.0796 13.3101 60.1142 13.2358C62.0348 13.0925 63.9766 13.1403 65.9025 13.2146C66.8151 13.2517 67.3032 13.0713 67.6799 12.1322C69.3352 7.95145 71.675 4.2694 75.6382 1.86598C77.7605 0.582034 80.0737 -0.0440222 82.562 0.00372783C84.2226 0.0355612 85.5384 1.29298 85.6074 2.88465C85.6764 4.51345 84.5516 5.97248 82.8538 6.00431C77.5748 6.09981 74.5718 11.0022 73.3197 14.6895C73.2242 14.976 73.7388 15.6657 74.1262 15.8886C78.0364 18.1063 81.0022 21.2313 83.1138 25.1733C84.6524 28.0489 85.5331 31.1367 85.6657 34.3997C85.7082 35.4342 86.0955 35.7314 87.0876 35.7897C100.723 36.6174 111.658 42.4376 119.712 53.5421C122.645 57.585 124.953 61.962 125.77 66.9068C126.805 73.1302 123.208 79.1043 117.287 81.3592C106.686 85.3967 96.0965 85.4179 85.5543 81.0833C85.2413 80.9559 84.9124 80.8657 84.7532 80.8127L84.7691 80.818ZM101.476 78.1917C106.373 78.1652 110.475 77.4171 114.804 75.73C118.815 74.1701 120.651 70.4191 119.383 66.3179C118.237 62.6146 116.433 59.2244 114.082 56.1684C108.909 49.4409 102.277 44.772 93.9424 42.9257C90.6211 42.1882 87.146 42.0344 83.7239 41.8699C81.8192 41.7797 81.2303 42.7453 81.851 44.3741C85.3633 53.5474 91.4011 60.0096 101.248 62.3653C103.121 62.8109 104.092 64.201 103.784 65.9359C103.477 67.6549 101.88 68.7585 99.9961 68.3605C94.8072 67.2623 90.1702 64.9915 86.1698 61.4845C81.7025 57.5637 78.5351 52.7357 76.3386 47.2444C75.0334 43.9868 74.6938 39.9917 78.8587 37.0047C79.2566 36.7182 79.5166 35.9754 79.5219 35.4396C79.5697 28.2346 74.3118 21.0721 66.2951 19.3955C57.0316 17.459 47.1739 23.953 46.3622 34.8506C46.2879 35.8799 46.5054 36.6227 47.4445 37.3124C50.2936 39.424 51.3706 42.5861 50.0336 45.8703C48.7125 49.1173 47.2164 52.3643 45.2904 55.277C40.6852 62.2273 34.1275 66.546 25.9782 68.3871C24.8163 68.647 23.7658 68.3499 22.9593 67.4639C22.1105 66.5248 21.9937 65.3947 22.4023 64.2381C22.8267 63.0232 23.856 62.5616 25.0285 62.2751C34.6952 59.8876 40.6428 53.4944 44.1126 44.4696C44.7546 42.7931 44.2346 41.9919 42.4679 41.9282C40.7542 41.8646 39.014 41.8115 37.3215 42.0184C22.2537 43.8754 12.0352 51.977 6.67659 66.1428C5.20695 70.0212 6.95778 73.9155 10.8096 75.5124C12.7886 76.3348 14.8896 76.9343 16.9853 77.3959C24.8959 79.1467 32.5783 78.2342 39.778 74.6158C51.5298 68.716 58.1723 59.0705 59.8913 46.0348C60.1619 43.9921 61.3238 42.8461 63.1171 42.8886C64.8414 42.931 65.9132 44.0717 66.136 46.0984C67.1175 55.0701 70.98 62.6518 77.5535 68.7532C84.2598 74.9713 92.3295 78.0273 101.476 78.1864V78.1917ZM74.6302 90.3627C70.8155 88.0495 55.4824 87.9062 51.6041 90.2513C51.6041 90.3415 51.5722 90.4476 51.6041 90.5112C54.1985 95.3393 57.8222 99.2336 62.369 102.258C62.6927 102.475 63.531 102.369 63.8387 102.093C66.3747 99.796 68.9373 97.5146 71.293 95.0422C72.5981 93.6734 73.5213 91.9384 74.6249 90.3574L74.6302 90.3627ZM62.8996 76.1067C61.2443 76.2181 59.3183 76.1597 57.4667 76.5046C54.4425 77.0723 51.4661 77.8946 48.4685 78.6162C47.731 78.7966 47.4763 79.2688 47.6673 80.0062C47.9273 81.0302 48.1979 82.0542 48.4207 83.0888C48.6329 84.0544 49.0521 84.2295 50.0867 84.0491C53.9014 83.3912 57.732 82.6643 61.5838 82.4415C66.4808 82.1603 71.3673 82.6749 76.1104 84.1021C76.8161 84.3144 77.2777 84.2401 77.4474 83.3859C77.6543 82.3513 77.9302 81.322 78.2433 80.314C78.5457 79.3537 78.2326 78.8868 77.2936 78.5419C72.7149 76.8866 67.9717 76.2552 62.8996 76.1013V76.1067ZM63.011 59.2721C60.7455 62.8268 58.3474 66.5885 56.0236 70.2334H69.9507C67.6375 66.5832 65.2606 62.8268 63.011 59.2721Z" fill="#FBBB00"/>
<path d="M74.6302 90.3625C73.5266 91.9436 72.6034 93.6732 71.2983 95.0473C68.9426 97.5197 66.38 99.8011 63.844 102.098C63.5362 102.374 62.698 102.48 62.3743 102.263C57.8275 99.2334 54.2038 95.3444 51.6093 90.5164C51.5722 90.4474 51.6093 90.3466 51.6093 90.2564C55.4877 87.9113 70.8208 88.0493 74.6355 90.3678L74.6302 90.3625Z" fill="black"/>
<path d="M62.8997 76.1064C67.9718 76.2603 72.715 76.8917 77.2936 78.547C78.238 78.8866 78.5458 79.3588 78.2433 80.3191C77.925 81.3271 77.6544 82.3511 77.4475 83.391C77.2777 84.2452 76.8162 84.3195 76.1105 84.1072C71.3673 82.68 66.4809 82.1654 61.5839 82.4466C57.7321 82.6694 53.9014 83.4016 50.0868 84.0542C49.0522 84.2346 48.6277 84.0542 48.4208 83.0939C48.198 82.0593 47.9274 81.0353 47.6674 80.0113C47.4817 79.2792 47.7311 78.8017 48.4686 78.6213C51.4662 77.8997 54.4426 77.0721 57.4668 76.5097C59.3184 76.1648 61.2443 76.2179 62.8997 76.1117V76.1064Z" fill="black"/>
<path d="M63.011 59.272C65.2606 62.8267 67.6375 66.5777 69.9507 70.2333H56.0236C58.3474 66.5883 60.7455 62.8267 63.011 59.272Z" fill="black"/>
</svg>
