<svg width="124" height="138" viewBox="0 0 124 138" fill="none" xmlns="http://www.w3.org/2000/svg">
<circle cx="10.3472" cy="62.0826" r="10.3292" transform="rotate(-0.1 10.3472 62.0826)" fill="#FBBB00" fill-opacity="0.4"/>
<circle cx="113.639" cy="61.9029" r="10.3292" transform="rotate(-0.1 113.639 61.9029)" fill="#FBBB00" fill-opacity="0.8"/>
<circle cx="61.9033" cy="10.3473" r="10.3292" transform="rotate(-0.1 61.9033 10.3473)" fill="#FBBB00" fill-opacity="0.6"/>
<circle cx="98.4493" cy="25.4104" r="10.3292" transform="rotate(44.9 98.4493 25.4104)" fill="#FBBB00" fill-opacity="0.7"/>
<circle cx="25.5382" cy="98.5754" r="10.3292" transform="rotate(44.9 25.5382 98.5754)" fill="#FBBB00" fill-opacity="0.2"/>
<circle cx="103.47" cy="100.079" r="10.3292" transform="rotate(134.9 103.47 100.079)" fill="#FBBB00"/>
<circle cx="25.4104" cy="25.5372" r="10.3292" transform="rotate(134.9 25.4104 25.5372)" fill="#FBBB00" fill-opacity="0.5"/>
<path d="M74.7068 109.191C75.4708 110.105 76.2621 110.923 76.9043 111.843C78.5136 114.15 79.2544 116.749 79.1727 119.579C79.1683 119.707 79.0379 119.883 78.9196 119.953C75.5016 121.978 71.9029 122.408 68.1299 121.248C68.0508 121.223 67.9701 121.198 67.8884 121.179C67.8632 121.172 67.8345 121.185 67.7996 121.188C67.6188 121.992 67.4867 122.812 67.2459 123.599C66.377 126.448 64.7749 128.799 62.3552 130.557C60.7372 131.733 58.246 131.471 56.9083 129.971C54.9395 127.766 53.8096 125.189 53.538 122.212C53.2944 119.552 53.8309 117.067 55.0482 114.707C55.1806 114.45 55.1513 114.33 54.9112 114.168C52.7481 112.705 51.6669 110.647 51.6534 108.022C51.6527 107.7 51.5622 107.535 51.2389 107.554C50.4908 107.599 49.7316 107.593 48.997 107.723C48.3693 107.833 47.9197 108.285 47.5712 108.832C47.2989 109.26 46.7808 109.401 46.3551 109.204C45.952 109.019 45.6806 108.494 45.8327 108.083C45.9391 107.798 46.1059 107.522 46.299 107.285C47.3999 105.936 48.8873 105.521 50.5395 105.539C50.902 105.543 51.269 105.573 51.6254 105.637C51.9378 105.694 52.088 105.609 52.2329 105.311C52.5005 104.757 52.8237 104.227 53.1518 103.706C53.3077 103.459 53.3362 103.296 53.1388 103.043C52.2566 101.923 51.6205 100.692 51.5945 99.2153C51.5813 98.4248 51.7791 97.6856 52.1897 97.0047C52.4637 96.5503 53.0188 96.3853 53.4663 96.6183C53.9241 96.8571 54.1446 97.3994 53.8821 97.8742C53.065 99.3499 53.9298 100.957 54.7411 101.887C54.8045 101.959 55.0758 101.926 55.1988 101.854C56.4317 101.123 57.7625 100.798 59.181 100.838C60.2155 100.867 61.203 101.112 62.1191 101.592C62.4097 101.745 62.553 101.684 62.7275 101.419C65.1326 97.7776 68.4757 95.6737 72.8078 95.2037C74.3853 95.0321 75.9544 95.0866 77.4411 95.6435C79.3133 96.3428 80.3771 98.284 80.0497 100.279C79.4637 103.852 77.7779 106.785 74.905 109.015C74.8201 109.082 74.7428 109.159 74.7028 109.194L74.7068 109.191ZM76.6554 104.152C77.4303 102.793 77.8803 101.54 78.1092 100.075C78.3221 98.7182 77.5866 97.6163 76.2592 97.3177C75.0604 97.0484 73.8425 97.0107 72.6289 97.1771C69.9574 97.5431 67.6175 98.6387 65.7796 100.653C65.0468 101.455 64.4495 102.392 63.8577 103.313C63.5287 103.825 63.6995 104.141 64.2454 104.227C67.3224 104.708 70.0592 104.061 72.2783 101.709C72.6997 101.262 73.236 101.213 73.6627 101.573C74.085 101.93 74.1326 102.547 73.7226 103.005C72.5925 104.267 71.2289 105.19 69.6281 105.742C67.8391 106.357 66.009 106.469 64.152 106.207C63.0501 106.052 61.9001 105.514 61.7462 103.888C61.7312 103.733 61.569 103.543 61.4229 103.457C59.4545 102.303 56.6501 102.624 54.9097 104.576C52.8988 106.833 53.1052 110.588 55.9643 112.539C56.2348 112.722 56.4732 112.779 56.8124 112.629C57.8467 112.175 58.886 112.378 59.5731 113.268C60.2526 114.147 60.9042 115.075 61.3954 116.069C62.5659 118.444 62.7029 120.942 61.906 123.489C61.7917 123.851 61.5424 124.095 61.1706 124.178C60.7774 124.264 60.4488 124.117 60.1968 123.821C59.9314 123.511 59.9692 123.154 60.078 122.784C60.9674 119.731 60.164 117.073 58.2431 114.684C57.8859 114.241 57.5831 114.258 57.2834 114.737C56.9922 115.201 56.6996 115.674 56.486 116.175C54.5883 120.638 55.178 124.748 58.2072 128.474C59.0361 129.495 60.3838 129.627 61.4371 128.814C61.9788 128.397 62.4789 127.91 62.9402 127.403C64.6841 125.492 65.661 123.222 65.8187 120.657C66.0779 116.471 64.4936 113.106 61.1929 110.566C60.6759 110.168 60.5472 109.665 60.8453 109.175C61.1324 108.705 61.6165 108.589 62.2079 108.848C64.8253 109.998 67.5217 110.129 70.2452 109.277C73.0219 108.406 75.1491 106.657 76.6539 104.151L76.6554 104.152ZM75.7049 113.507C74.4611 114.197 71.9725 118.416 71.9961 119.861C72.0209 119.875 72.0449 119.901 72.0674 119.902C73.806 119.949 75.4529 119.563 77.0087 118.783C77.1201 118.728 77.2249 118.48 77.1984 118.351C76.9734 117.285 76.757 116.215 76.4553 115.172C76.2883 114.594 75.96 114.064 75.7026 113.508L75.7049 113.507ZM69.9211 114.496C69.6873 114.971 69.3636 115.495 69.1624 116.062C68.835 116.988 68.5851 117.942 68.3041 118.886C68.2358 119.118 68.3246 119.264 68.5574 119.328C68.8798 119.418 69.2038 119.505 69.5232 119.607C69.8219 119.701 69.9369 119.613 70.0527 119.298C70.4816 118.139 70.8942 116.964 71.4484 115.863C72.1535 114.463 73.0752 113.193 74.2243 112.106C74.3953 111.945 74.4486 111.805 74.2415 111.623C73.9908 111.402 73.7526 111.163 73.5261 110.917C73.311 110.681 73.133 110.693 72.8884 110.899C71.703 111.903 70.7721 113.116 69.9197 114.495L69.9211 114.496ZM65.3218 111.799C65.9349 112.989 66.5835 114.248 67.2119 115.468L69.4367 111.615C68.066 111.677 66.6561 111.74 65.3218 111.799Z" fill="#FBBB00"/>
<path d="M76.6556 104.152C75.1508 106.657 73.0251 108.407 70.2469 109.277C67.5249 110.131 64.8285 109.999 62.2097 108.849C61.6197 108.59 61.1341 108.705 60.8471 109.176C60.549 109.665 60.6777 110.168 61.1947 110.566C64.4953 113.106 66.0796 116.471 65.8204 120.657C65.6627 123.222 64.6858 125.492 62.942 127.404C62.4806 127.911 61.9791 128.396 61.4389 128.814C60.3856 129.627 59.0393 129.496 58.2089 128.474C55.1806 124.747 54.5909 120.637 56.4877 116.175C56.7014 115.674 56.9939 115.201 57.2851 114.737C57.5856 114.257 57.8884 114.24 58.2448 114.684C60.1657 117.073 60.9691 119.731 60.0797 122.784C59.9724 123.155 59.934 123.51 60.1986 123.822C60.4505 124.118 60.7806 124.265 61.1723 124.178C61.5447 124.098 61.7949 123.853 61.9077 123.489C62.7046 120.943 62.5668 118.446 61.3971 116.07C60.9082 115.075 60.2543 114.148 59.5748 113.268C58.8877 112.378 57.8484 112.175 56.8141 112.629C56.4743 112.777 56.235 112.722 55.9661 112.539C53.1069 110.589 52.9005 106.833 54.9114 104.576C56.6519 102.624 59.4553 102.305 61.4246 103.457C61.5716 103.542 61.7338 103.732 61.7479 103.889C61.901 105.515 63.0518 106.053 64.1538 106.207C66.0092 106.468 67.8408 106.357 69.6298 105.742C71.2307 105.191 72.5927 104.266 73.7243 103.005C74.1334 102.549 74.0867 101.931 73.6644 101.573C73.2386 101.212 72.7014 101.262 72.28 101.71C70.0618 104.06 67.3241 104.708 64.2471 104.228C63.7012 104.141 63.5282 103.826 63.8595 103.313C64.4504 102.394 65.0477 101.456 65.7814 100.653C67.6207 98.6399 69.9591 97.5434 72.6306 97.1774C73.8442 97.011 75.0607 97.0479 76.2609 97.318C77.5874 97.6181 78.323 98.7199 78.1109 100.075C77.8806 101.539 77.4321 102.793 76.6571 104.153L76.6556 104.152Z" fill="#1A3932"/>
<path d="M75.7051 113.507C75.9625 114.062 76.2894 114.592 76.4577 115.17C76.7595 116.214 76.9759 117.284 77.2008 118.349C77.2273 118.478 77.1225 118.727 77.0112 118.782C75.454 119.56 73.8085 119.947 72.0699 119.901C72.045 119.9 72.0233 119.874 71.9986 119.859C71.975 118.415 74.4622 114.194 75.7074 113.506L75.7051 113.507Z" fill="black"/>
<path d="M69.9212 114.496C70.7736 113.117 71.7045 111.904 72.8899 110.9C73.1339 110.692 73.3125 110.682 73.5276 110.917C73.7532 111.165 73.9908 111.402 74.243 111.624C74.4501 111.806 74.3968 111.946 74.2258 112.107C73.0767 113.194 72.155 114.464 71.4499 115.864C70.8957 116.965 70.4846 118.141 70.0542 119.299C69.9384 119.614 69.8211 119.703 69.5247 119.608C69.2053 119.506 68.8813 119.419 68.5589 119.329C68.3284 119.264 68.2373 119.119 68.3056 118.887C68.5866 117.943 68.8351 116.989 69.1639 116.063C69.3651 115.496 69.6873 114.971 69.9226 114.497L69.9212 114.496Z" fill="black"/>
<path d="M65.3218 111.799C66.656 111.74 68.0645 111.676 69.4366 111.615L67.2119 115.468C66.5834 114.248 65.9348 112.989 65.3218 111.799Z" fill="black"/>
</svg>
